<svg width="193" height="30" viewBox="0 0 193 30" fill="none" xmlns="http://www.w3.org/2000/svg">
<path d="M85.6007 19.791H87.2615C87.7167 19.791 87.7926 19.8857 87.7926 20.3467V22.0371C87.7926 22.498 87.7167 22.5883 87.2867 22.5883H85.4633L85.3107 22.5902L78.3254 22.5858C77.9226 22.5858 77.8279 22.5163 77.8279 22.0977V7.12687C77.8279 6.70771 77.9226 6.63788 78.3254 6.63788H80.5294C80.9325 6.63788 81.0273 6.70771 81.0273 7.12687V19.7923H85.5027L85.6007 19.791Z" fill="white"/>
<path d="M56.3125 20.0059V15.4955H60.3415C60.7443 15.4955 60.839 15.4263 60.839 15.0069V13.4737C60.839 13.0557 60.7679 12.9856 60.3415 12.9856H56.3125V9.15414H57.0648L57.1773 9.15376H61.3715C61.7973 9.15376 61.8684 9.07962 61.8684 8.66098V7.12657C61.8684 6.70818 61.7973 6.64327 61.3951 6.64327H57.3183L57.0622 6.6391H53.611C53.2082 6.6391 53.1135 6.70893 53.1135 7.12757V22.0745C53.1135 22.4925 53.2082 22.5626 53.611 22.5626H61.408C61.8109 22.5626 61.882 22.4925 61.882 22.0745V20.5407C61.882 20.1214 61.8109 20.052 61.3841 20.052H56.3125V20.0059Z" fill="white"/>
<path d="M68.5382 13.5525H67.922V9.08253H68.7988C70.0312 9.08253 71.3819 9.152 71.3819 11.1777C71.3819 13.3195 70.0784 13.5525 68.5382 13.5525ZM75.7766 22.1456L74.5626 20.0745L71.8798 15.4378C72.7563 14.9953 74.5813 14.1345 74.5813 11.131C74.5813 6.75415 70.8841 6.63783 69.0597 6.63783H65.2205C64.8173 6.63783 64.7226 6.70766 64.7226 7.12669V22.0957C64.7226 22.515 64.8173 22.5845 65.2205 22.5845H67.4241C67.8269 22.5845 67.922 22.515 67.922 22.0957V15.996H69.0597L71.7414 21.2458L72.2154 22.1633C72.4026 22.4702 72.3719 22.5813 72.8164 22.5813L75.1115 22.5826C75.2395 22.5826 75.3472 22.5813 75.4736 22.5801C75.7028 22.5617 75.8289 22.4677 75.7766 22.1456Z" fill="white"/>
<path d="M186.33 9.40124L183.251 13.6443H183.204V7.12738C183.204 6.70848 183.109 6.63864 182.706 6.63864H180.502C180.099 6.63864 180.005 6.70848 180.005 7.12738V22.0928C180.005 22.5121 180.099 22.5822 180.502 22.5822H182.706C183.109 22.5822 183.204 22.5121 183.204 22.0928V15.5529H183.251L185.623 18.6382L186.085 19.2367L188.227 22.0543C188.524 22.4641 188.536 22.5341 188.914 22.5341L191.743 22.5329C192.07 22.5329 192.272 22.5278 192.319 22.3599C192.341 22.2803 192.352 22.2115 192.233 22.029C192.112 21.8522 192.019 21.7366 192.019 21.7366L191.569 21.2087L186 14.4124L191.048 7.87213L191.441 7.37115C191.441 7.37115 191.527 7.26708 191.633 7.0967C191.74 6.92532 191.729 6.86169 191.708 6.78769C191.664 6.63095 191.481 6.63738 191.186 6.63929L188.624 6.63903C188.352 6.6346 188.283 6.73224 188.018 7.1169L186.305 9.43445L186.33 9.40124Z" fill="white"/>
<path d="M112.127 20.0065V15.4955H116.155C116.558 15.4955 116.653 15.4263 116.653 15.007V13.4739C116.653 13.0559 116.582 12.9858 116.155 12.9858H112.127V9.15453H112.879L112.991 9.15414H117.185C117.612 9.15414 117.682 9.08001 117.682 8.66137V7.12696C117.682 6.70854 117.612 6.64353 117.209 6.64353H113.132L112.876 6.63948H109.425C109.022 6.63948 108.927 6.70919 108.927 7.12783V22.0745C108.927 22.4925 109.022 22.5626 109.425 22.5626H117.222C117.625 22.5626 117.696 22.4925 117.696 22.0745V20.5407C117.696 20.1214 117.625 20.0527 117.198 20.0527H112.127V20.0065Z" fill="white"/>
<path d="M124.352 13.5529H123.736V9.08292H124.612C125.845 9.08292 127.195 9.15239 127.195 11.1781C127.195 13.3199 125.892 13.5529 124.352 13.5529ZM131.59 22.1456L130.377 20.0751L127.694 15.4378C128.57 14.9954 130.395 14.1347 130.395 11.1313C130.395 6.75441 126.698 6.63822 124.873 6.63822H121.034C120.631 6.63822 120.536 6.70805 120.536 7.12695V22.0957C120.536 22.5156 120.631 22.5845 121.034 22.5845H123.238C123.641 22.5845 123.736 22.5156 123.736 22.0957V15.996H124.873L127.555 21.2465L128.029 22.164C128.216 22.4702 128.186 22.582 128.63 22.582L130.925 22.5832C131.053 22.5832 131.161 22.582 131.287 22.5801C131.516 22.5617 131.643 22.4683 131.59 22.1456Z" fill="white"/>
<path d="M92.8584 22.3679C92.8584 22.5587 92.7657 22.5902 92.3696 22.5902H90.2045C89.8088 22.5902 89.7156 22.5587 89.7156 22.3679V7.15884C89.7156 6.7124 89.8088 6.63788 90.2045 6.63788H92.3696C92.7657 6.63788 92.8584 6.7124 92.8584 7.15884V22.3679Z" fill="white"/>
<path d="M25.4946 22.6086L19.843 22.6061V21.2409L24.7611 21.2441C25.6944 21.2586 26.6718 21.0502 27.3423 20.4832C27.9317 19.9844 28.2724 19.1988 28.3038 18.1778C28.5708 15.724 26.5654 14.4959 25.1604 14.4959H24.227V12.9322H25.1604C27.042 12.7978 27.8353 11.0891 27.8353 10.068C27.7749 8.62353 26.7966 7.85039 24.894 7.93878L19.0477 7.9326C19.0662 7.43566 18.7681 7.02255 18.7419 6.58939L25.4284 6.58434C27.9026 6.58434 29.3034 7.47529 29.3713 10.1346C29.3713 11.8386 28.3707 13.2015 27.2334 13.6123C28.8421 14.3151 29.9743 15.3163 29.8404 18.1778C29.9077 20.9732 27.7694 22.6086 25.4946 22.6086Z" fill="white"/>
<path d="M0.361816 6.58522V10.5441H2.99962V18.1778H0.361816V22.6086H8.31613V21.2466L1.56446 21.2441V19.406H4.28286V9.31723H1.56446V7.94786H8.31613V6.58522H0.361816Z" fill="white"/>
<path d="M14.2261 24.7559C17.0608 24.7559 19.4431 24.2629 19.4431 20.7716C19.4431 17.3208 17.0608 16.8693 14.3082 16.8693H12.7474V24.7559H14.2261ZM14.0209 12.5555C16.4443 12.5555 18.4984 11.9395 18.4984 8.69422C18.4984 6.1064 16.7321 5.24351 14.4727 5.24351H12.7474V12.5555H14.0209ZM14.4727 0.930365C18.4571 0.930365 24.044 1.50551 24.044 8.11897C24.044 12.2269 21.4149 13.5413 19.854 14.3219C21.7845 14.8559 24.9887 16.3762 24.9887 21.1C24.9887 27.9599 20.1004 29.0695 14.8013 29.0695H5.1069C4.40837 29.0695 4.2442 28.9052 4.2442 28.2069V25.9888C4.2442 25.2493 4.40837 25.1255 5.1069 25.1255H7.20165V4.87398H5.1069C4.40837 4.87398 4.2442 4.75047 4.2442 4.01141V1.79293C4.2442 1.05354 4.40837 0.930365 5.1069 0.930365H14.4727Z" fill="white"/>
<path d="M44.4608 20.2443C46.0766 20.2443 47.4348 19.9595 47.4348 17.9395C47.4348 15.9435 46.0766 15.6821 44.5077 15.6821H43.6179V20.2443H44.4608ZM44.3441 13.1866C45.7255 13.1866 46.8962 12.8301 46.8962 10.9528C46.8962 9.4559 45.8895 8.95679 44.6014 8.95679H43.6179V13.1866H44.3441ZM44.6014 6.46169C46.8729 6.46169 50.0574 6.79446 50.0574 10.6203C50.0574 12.9965 48.5589 13.7569 47.6692 14.2084C48.7697 14.5173 50.5964 15.3967 50.5964 18.1296C50.5964 22.0982 47.8095 22.7397 44.7889 22.7397H39.2621C38.8638 22.7397 38.7704 22.6444 38.7704 22.2402V20.9572C38.7704 20.5297 38.8638 20.4583 39.2621 20.4583H40.4564V8.74286H39.2621C38.8638 8.74286 38.7704 8.67177 38.7704 8.24388V6.96067C38.7704 6.53304 38.8638 6.46169 39.2621 6.46169H44.6014Z" fill="white"/>
<path d="M106.178 22.0693C106.178 22.4885 106.109 22.558 105.695 22.558H104.176C103.854 22.558 103.784 22.5119 103.646 22.2322L99.434 14.2938C98.7431 12.99 98.3516 12.1753 98.1217 11.1277H98.0758C98.0758 11.4303 98.1447 12.6176 98.1447 13.6883V22.0693C98.1447 22.4885 98.0525 22.558 97.6617 22.558H95.9808C95.5896 22.558 95.4975 22.4885 95.4975 22.0693V7.10033C95.4975 6.68117 95.5896 6.61147 95.9808 6.61147H97.8686C98.2135 6.61147 98.2594 6.65806 98.3978 6.91405L102.196 14.1307C102.841 15.3646 103.278 16.5523 103.554 17.5064H103.6C103.6 16.7613 103.531 15.1318 103.531 14.4799V7.10033C103.531 6.68117 103.623 6.61147 104.015 6.61147H105.695C106.086 6.61147 106.178 6.68117 106.178 7.10033V22.0693Z" fill="white"/>
<path d="M158.33 12.1985C158.124 11.2906 157.94 9.91708 157.825 8.93949H157.779C157.688 9.91708 157.48 11.2674 157.251 12.1985L156.241 16.2031H159.272L158.33 12.1985ZM154.955 22.0693C154.863 22.4885 154.817 22.558 154.472 22.558H152.153C151.854 22.558 151.716 22.5119 151.694 22.3484C151.694 22.2322 151.762 22.0459 151.785 21.9531L156.31 6.96067C156.401 6.65806 156.424 6.61147 156.815 6.61147H159.203C159.547 6.61147 159.593 6.70455 159.685 6.98388L164.186 21.9992C164.209 22.0926 164.278 22.2789 164.278 22.3717C164.278 22.5119 164.048 22.558 163.819 22.558H161.247C161.017 22.558 160.971 22.4885 160.856 22.0693L159.846 18.2982H155.896L154.955 22.0693Z" fill="white"/>
<path d="M176.968 22.0693C176.968 22.4885 176.899 22.558 176.485 22.558H174.97C174.649 22.558 174.579 22.5119 174.442 22.2322L170.239 14.2938C169.55 12.99 169.16 12.1753 168.93 11.1277H168.884C168.884 11.4303 168.953 12.6176 168.953 13.6883V22.0693C168.953 22.4885 168.861 22.558 168.471 22.558H166.795C166.405 22.558 166.312 22.4885 166.312 22.0693V7.10033C166.312 6.68117 166.405 6.61147 166.795 6.61147H168.678C169.022 6.61147 169.068 6.65806 169.206 6.91405L172.995 14.1307C173.638 15.3646 174.074 16.5523 174.35 17.5064H174.395C174.395 16.7613 174.326 15.1318 174.326 14.4799V7.10033C174.326 6.68117 174.419 6.61147 174.809 6.61147H176.485C176.876 6.61147 176.968 6.68117 176.968 7.10033V22.0693Z" fill="white"/>
<path d="M144.367 20.3059C145.983 20.3059 147.342 20.0205 147.342 18.0006C147.342 16.0045 145.983 15.7431 144.415 15.7431H143.525V20.3059H144.367ZM144.251 13.2479C145.633 13.2479 146.803 12.8915 146.803 11.0142C146.803 9.51719 145.796 9.01821 144.508 9.01821H143.525V13.2479H144.251ZM144.508 6.52302C146.78 6.52302 149.965 6.85579 149.965 10.6816C149.965 13.0578 148.466 13.8183 147.576 14.2698C148.677 14.5787 150.503 15.4577 150.503 18.1906C150.503 22.1592 147.717 22.8008 144.696 22.8008H139.169C138.771 22.8008 138.678 22.7061 138.678 22.3019V21.0188C138.678 20.5907 138.771 20.5194 139.169 20.5194H140.364V8.80428H139.169C138.771 8.80428 138.678 8.73306 138.678 8.30534V7.02209C138.678 6.59437 138.771 6.52302 139.169 6.52302H144.508Z" fill="white"/>
</svg>
