<svg width="192" height="29" viewBox="0 0 192 29" fill="none" xmlns="http://www.w3.org/2000/svg">
<path d="M85.2388 18.86H86.8996C87.3548 18.86 87.4308 18.9547 87.4308 19.4157V21.106C87.4308 21.567 87.3548 21.6573 86.9249 21.6573H85.1014L84.9488 21.6592L77.9636 21.6548C77.5608 21.6548 77.4661 21.5853 77.4661 21.1667V6.19584C77.4661 5.77668 77.5608 5.70685 77.9636 5.70685H80.1676C80.5707 5.70685 80.6654 5.77668 80.6654 6.19584V18.8612H85.1409L85.2388 18.86Z" fill="#231F20"/>
<path d="M55.9507 19.0751V14.5647H59.9797C60.3825 14.5647 60.4772 14.4955 60.4772 14.0761V12.5429C60.4772 12.1249 60.4061 12.0548 59.9797 12.0548H55.9507V8.22336H56.703L56.8155 8.22297H61.0097C61.4355 8.22297 61.5066 8.14884 61.5066 7.7302V6.19578C61.5066 5.7774 61.4355 5.71248 61.0333 5.71248H56.9565L56.7004 5.70831H53.2492C52.8464 5.70831 52.7516 5.77814 52.7516 6.19678V21.1437C52.7516 21.5617 52.8464 21.6318 53.2492 21.6318H61.0462C61.4491 21.6318 61.5202 21.5617 61.5202 21.1437V19.61C61.5202 19.1907 61.4491 19.1212 61.0223 19.1212H55.9507V19.0751Z" fill="#231F20"/>
<path d="M68.1764 12.6214H67.5602V8.15137H68.4369C69.6694 8.15137 71.0201 8.22085 71.0201 10.2465C71.0201 12.3884 69.7166 12.6214 68.1764 12.6214ZM75.4147 21.2145L74.2007 19.1433L71.518 14.5066C72.3945 14.0641 74.2195 13.2033 74.2195 10.1998C74.2195 5.823 70.5222 5.70668 68.6979 5.70668H64.8587C64.4555 5.70668 64.3608 5.77651 64.3608 6.19554V21.1646C64.3608 21.5839 64.4555 21.6533 64.8587 21.6533H67.0623C67.4651 21.6533 67.5602 21.5839 67.5602 21.1646V15.0648H68.6979L71.3796 20.3147L71.8536 21.2322C72.0408 21.539 72.0101 21.6502 72.4546 21.6502L74.7497 21.6514C74.8777 21.6514 74.9854 21.6502 75.1118 21.6489C75.341 21.6306 75.4671 21.5365 75.4147 21.2145Z" fill="#231F20"/>
<path d="M185.968 8.47046L182.89 12.7135H182.842V6.19659C182.842 5.77769 182.747 5.70786 182.344 5.70786H180.14C179.737 5.70786 179.643 5.77769 179.643 6.19659V21.162C179.643 21.5813 179.737 21.6514 180.14 21.6514H182.344C182.747 21.6514 182.842 21.5813 182.842 21.162V14.6221H182.89L185.261 17.7074L185.723 18.306L187.866 21.1235C188.162 21.5333 188.174 21.6034 188.552 21.6034L191.381 21.6021C191.708 21.6021 191.91 21.5971 191.957 21.4291C191.979 21.3495 191.991 21.2807 191.871 21.0982C191.75 20.9214 191.657 20.8058 191.657 20.8058L191.208 20.278L185.638 13.4816L190.686 6.94135L191.079 6.44036C191.079 6.44036 191.165 6.33629 191.271 6.16591C191.378 5.99453 191.367 5.9309 191.346 5.8569C191.302 5.70016 191.119 5.7066 190.824 5.70851L188.263 5.70825C187.99 5.70382 187.921 5.80145 187.656 6.18612L185.943 8.50366L185.968 8.47046Z" fill="#231F20"/>
<path d="M111.765 19.0758V14.5647H115.794C116.196 14.5647 116.291 14.4955 116.291 14.0762V12.5431C116.291 12.1251 116.22 12.055 115.794 12.055H111.765V8.22374H112.517L112.629 8.22336H116.823C117.25 8.22336 117.32 8.14923 117.32 7.73058V6.19617C117.32 5.77775 117.25 5.71274 116.848 5.71274H112.77L112.514 5.7087H109.063C108.66 5.7087 108.565 5.7784 108.565 6.19704V21.1437C108.565 21.5617 108.66 21.6318 109.063 21.6318H116.86C117.263 21.6318 117.334 21.5617 117.334 21.1437V19.61C117.334 19.1907 117.263 19.1219 116.836 19.1219H111.765V19.0758Z" fill="#231F20"/>
<path d="M123.99 12.6218H123.374V8.15176H124.25C125.483 8.15176 126.834 8.22124 126.834 10.2469C126.834 12.3888 125.53 12.6218 123.99 12.6218ZM131.229 21.2145L130.015 19.144L127.332 14.5066C128.208 14.0642 130.033 13.2036 130.033 10.2002C130.033 5.82326 126.336 5.70707 124.511 5.70707H120.672C120.269 5.70707 120.175 5.7769 120.175 6.1958V21.1646C120.175 21.5845 120.269 21.6533 120.672 21.6533H122.876C123.279 21.6533 123.374 21.5845 123.374 21.1646V15.0648H124.511L127.193 20.3153L127.667 21.2328C127.854 21.539 127.824 21.6508 128.268 21.6508L130.564 21.6521C130.691 21.6521 130.799 21.6508 130.925 21.6489C131.155 21.6306 131.281 21.5372 131.229 21.2145Z" fill="#231F20"/>
<path d="M92.4966 21.4369C92.4966 21.6276 92.4038 21.6592 92.0078 21.6592H89.8427C89.4469 21.6592 89.3538 21.6276 89.3538 21.4369V6.22781C89.3538 5.78137 89.4469 5.70685 89.8427 5.70685H92.0078C92.4038 5.70685 92.4966 5.78137 92.4966 6.22781V21.4369Z" fill="#231F20"/>
<path d="M25.1329 21.6777L19.4813 21.6752V20.31L24.3993 20.3132C25.3327 20.3277 26.31 20.1193 26.9805 19.5523C27.5699 19.0534 27.9107 18.2679 27.942 17.2469C28.2091 14.7931 26.2037 13.565 24.7986 13.565H23.8652V12.0013H24.7986C26.6802 11.8668 27.4736 10.1582 27.4736 9.13709C27.4131 7.69262 26.4348 6.91948 24.5322 7.00787L18.686 7.0017C18.7044 6.50475 18.4063 6.09164 18.3801 5.65848L25.0666 5.65344C27.5408 5.65344 28.9417 6.54439 29.0096 9.20366C29.0096 10.9077 28.009 12.2706 26.8716 12.6814C28.4803 13.3842 29.6125 14.3854 29.4787 17.2469C29.5459 20.0423 27.4076 21.6777 25.1329 21.6777Z" fill="#231F20"/>
<path d="M0 5.65431V9.61321H2.6378V17.2469H0V21.6777H7.95431V20.3157L1.20264 20.3132V18.4751H3.92105V8.38632H1.20264V7.01695H7.95431V5.65431H0Z" fill="#231F20"/>
<path d="M13.8643 23.8251C16.699 23.8251 19.0814 23.3321 19.0814 19.8409C19.0814 16.39 16.699 15.9385 13.9464 15.9385H12.3856V23.8251H13.8643ZM13.6591 11.6247C16.0826 11.6247 18.1367 11.0087 18.1367 7.76343C18.1367 5.17561 16.3703 4.31272 14.111 4.31272H12.3856V11.6247H13.6591ZM14.111 -0.000421524C18.0953 -0.000421524 23.6822 0.574728 23.6822 7.18818C23.6822 11.2961 21.0532 12.6105 19.4923 13.3911C21.4227 13.9251 24.6269 15.4454 24.6269 20.1692C24.6269 27.0291 19.7386 28.1387 14.4396 28.1387H4.74514C4.04662 28.1387 3.88245 27.9744 3.88245 27.2761V25.058C3.88245 24.3186 4.04662 24.1947 4.74514 24.1947H6.8399V3.94319H4.74514C4.04662 3.94319 3.88245 3.81969 3.88245 3.08063V0.862141C3.88245 0.122755 4.04662 -0.000421524 4.74514 -0.000421524H14.111Z" fill="#231F20"/>
<path d="M44.099 19.3141C45.7148 19.3141 47.073 19.0293 47.073 17.0093C47.073 15.0133 45.7148 14.7519 44.1458 14.7519H43.2561V19.3141H44.099ZM43.9823 12.2564C45.3637 12.2564 46.5344 11.8999 46.5344 10.0226C46.5344 8.52572 45.5276 8.02661 44.2396 8.02661H43.2561V12.2564H43.9823ZM44.2396 5.53151C46.5111 5.53151 49.6956 5.86429 49.6956 9.69009C49.6956 12.0663 48.1971 12.8267 47.3074 13.2782C48.4079 13.5871 50.2346 14.4665 50.2346 17.1994C50.2346 21.168 47.4477 21.8096 44.4271 21.8096H38.9003C38.502 21.8096 38.4086 21.7142 38.4086 21.3101V20.027C38.4086 19.5995 38.502 19.5281 38.9003 19.5281H40.0946V7.81269H38.9003C38.502 7.81269 38.4086 7.74159 38.4086 7.3137V6.03049C38.4086 5.60287 38.502 5.53151 38.9003 5.53151H44.2396Z" fill="#231F20"/>
<path d="M105.816 21.1382C105.816 21.5575 105.747 21.627 105.333 21.627H103.814C103.492 21.627 103.422 21.5809 103.284 21.3011L99.0722 13.3627C98.3813 12.0589 97.9898 11.2442 97.7599 10.1966H97.714C97.714 10.4993 97.7829 11.6866 97.7829 12.7573V21.1382C97.7829 21.5575 97.6907 21.627 97.2998 21.627H95.619C95.2278 21.627 95.1357 21.5575 95.1357 21.1382V6.1693C95.1357 5.75014 95.2278 5.68044 95.619 5.68044H97.5068C97.8517 5.68044 97.8976 5.72703 98.036 5.98302L101.834 13.1997C102.479 14.4335 102.916 15.6213 103.192 16.5754H103.239C103.239 15.8303 103.169 14.2008 103.169 13.5489V6.1693C103.169 5.75014 103.261 5.68044 103.653 5.68044H105.333C105.724 5.68044 105.816 5.75014 105.816 6.1693V21.1382Z" fill="#231F20"/>
<path d="M157.968 11.2675C157.762 10.3596 157.578 8.98605 157.463 8.00846H157.417C157.326 8.98605 157.118 10.3363 156.889 11.2675L155.879 15.2721H158.91L157.968 11.2675ZM154.593 21.1382C154.501 21.5575 154.455 21.627 154.11 21.627H151.791C151.492 21.627 151.355 21.5809 151.332 21.4173C151.332 21.3011 151.401 21.1148 151.424 21.022L155.948 6.02964C156.039 5.72703 156.062 5.68044 156.453 5.68044H158.841C159.185 5.68044 159.231 5.77352 159.323 6.05285L163.824 21.0681C163.847 21.1616 163.916 21.3478 163.916 21.4407C163.916 21.5809 163.686 21.627 163.457 21.627H160.885C160.655 21.627 160.609 21.5575 160.494 21.1382L159.484 17.3672H155.534L154.593 21.1382Z" fill="#231F20"/>
<path d="M176.606 21.1382C176.606 21.5575 176.537 21.627 176.124 21.627H174.608C174.287 21.627 174.217 21.5809 174.08 21.3011L169.878 13.3627C169.189 12.0589 168.798 11.2442 168.568 10.1966H168.522C168.522 10.4993 168.591 11.6866 168.591 12.7573V21.1382C168.591 21.5575 168.5 21.627 168.109 21.627H166.433C166.043 21.627 165.95 21.5575 165.95 21.1382V6.1693C165.95 5.75014 166.043 5.68044 166.433 5.68044H168.316C168.661 5.68044 168.706 5.72703 168.844 5.98302L172.633 13.1997C173.276 14.4335 173.712 15.6213 173.988 16.5754H174.034C174.034 15.8303 173.965 14.2008 173.965 13.5489V6.1693C173.965 5.75014 174.057 5.68044 174.447 5.68044H176.124C176.514 5.68044 176.606 5.75014 176.606 6.1693V21.1382Z" fill="#231F20"/>
<path d="M144.006 19.3753C145.622 19.3753 146.98 19.0899 146.98 17.0699C146.98 15.0739 145.622 14.8124 144.053 14.8124H143.163V19.3753H144.006ZM143.889 12.3172C145.271 12.3172 146.441 11.9608 146.441 10.0836C146.441 8.58653 145.435 8.08755 144.147 8.08755H143.163V12.3172H143.889ZM144.147 5.59235C146.418 5.59235 149.603 5.92512 149.603 9.75093C149.603 12.1272 148.104 12.8877 147.214 13.3392C148.315 13.6481 150.142 14.527 150.142 17.2599C150.142 21.2286 147.355 21.8701 144.334 21.8701H138.807C138.409 21.8701 138.316 21.7754 138.316 21.3713V20.0882C138.316 19.6601 138.409 19.5887 138.807 19.5887H140.002V7.87362H138.807C138.409 7.87362 138.316 7.8024 138.316 7.37467V6.09143C138.316 5.6637 138.409 5.59235 138.807 5.59235H144.147Z" fill="#231F20"/>
</svg>
