<svg width="30" height="29" viewBox="0 0 30 29" fill="none" xmlns="http://www.w3.org/2000/svg">
<path d="M25.1329 21.6782L19.4813 21.6757V20.3105L24.3993 20.3137C25.3327 20.3282 26.31 20.1198 26.9805 19.5528C27.5699 19.0539 27.9107 18.2684 27.942 17.2474C28.2091 14.7936 26.2037 13.5655 24.7986 13.5655H23.8652V12.0018H24.7986C26.6802 11.8673 27.4736 10.1587 27.4736 9.13758C27.4131 7.69311 26.4348 6.91997 24.5322 7.00836L18.686 7.00218C18.7044 6.50524 18.4063 6.09213 18.3801 5.65897L25.0666 5.65393C27.5408 5.65393 28.9417 6.54487 29.0096 9.20415C29.0096 10.9082 28.009 12.2711 26.8716 12.6819C28.4803 13.3847 29.6125 14.3859 29.4787 17.2474C29.5459 20.0428 27.4076 21.6782 25.1329 21.6782Z" fill="#7A4EED"/>
<path d="M0 5.6548V9.6137H2.6378V17.2474H0V21.6782H7.95431V20.3162L1.20264 20.3137V18.4755H3.92105V8.38681H1.20264V7.01744H7.95431V5.6548H0Z" fill="#7A4EED"/>
<path d="M13.8643 23.8255C16.699 23.8255 19.0814 23.3325 19.0814 19.8412C19.0814 16.3903 16.699 15.9389 13.9464 15.9389H12.3856V23.8255H13.8643ZM13.6591 11.6251C16.0826 11.6251 18.1367 11.0091 18.1367 7.7638C18.1367 5.17598 16.3703 4.31309 14.111 4.31309H12.3856V11.6251H13.6591ZM14.111 -5.53131e-05C18.0953 -5.53131e-05 23.6822 0.575094 23.6822 7.18855C23.6822 11.2965 21.0532 12.6109 19.4923 13.3915C21.4227 13.9254 24.6269 15.4457 24.6269 20.1696C24.6269 27.0294 19.7386 28.139 14.4396 28.139H4.74514C4.04662 28.139 3.88245 27.9747 3.88245 27.2765V25.0583C3.88245 24.3189 4.04662 24.195 4.74514 24.195H6.8399V3.94356H4.74514C4.04662 3.94356 3.88245 3.82006 3.88245 3.08099V0.862507C3.88245 0.12312 4.04662 -5.53131e-05 4.74514 -5.53131e-05H14.111Z" fill="#7A4EED"/>
</svg>
